{"glyphs":{"0":{"ha":772,"x_min":50,"x_max":722,"o":"m 386 113 q 564 486 564 113 q 386 860 564 860 q 208 486 208 860 q 386 113 208 113 m 386 992 q 658 822 575 992 q 722 486 722 694 q 658 150 722 278 q 386 -19 575 -19 q 114 150 197 -19 q 50 486 50 278 q 114 822 50 694 q 386 992 197 992 z "},"1":{"ha":772,"x_min":74,"x_max":486,"o":"m 74 686 l 74 811 q 257 847 182 810 q 357 972 340 890 l 486 972 l 486 0 l 313 0 l 313 686 l 74 686 z "},"2":{"ha":772,"x_min":54,"x_max":719,"o":"m 718 142 l 718 0 l 54 0 q 268 368 56 221 q 400 457 335 413 q 513 557 475 510 q 561 688 560 618 q 531 800 563 754 q 397 860 489 860 q 231 617 238 860 l 72 617 q 158 885 72 783 q 407 992 249 992 q 653 889 568 992 q 719 693 719 807 q 503 365 719 517 q 342 257 422 311 q 244 142 263 196 l 718 142 z "},"3":{"ha":772,"x_min":43,"x_max":729,"o":"m 317 451 l 317 569 q 464 600 407 565 q 532 722 532 639 q 490 822 532 783 q 381 860 447 860 q 260 801 303 860 q 219 661 217 742 l 61 661 q 151 897 68 807 q 383 992 240 992 q 593 926 507 992 q 690 732 690 854 q 553 524 690 572 l 553 521 q 682 438 635 504 q 729 278 729 372 q 626 61 729 144 q 385 -19 529 -19 q 131 74 221 -19 q 43 319 46 163 l 201 319 q 246 172 199 228 q 385 113 294 113 q 519 159 467 113 q 571 286 571 206 q 317 451 571 463 z "},"4":{"ha":772,"x_min":33,"x_max":725,"o":"m 725 356 l 725 231 l 600 231 l 600 0 l 450 0 l 450 231 l 33 231 l 33 388 l 450 972 l 600 972 l 600 356 l 725 356 m 447 783 l 156 356 l 450 356 l 450 783 l 447 783 z "},"5":{"ha":772,"x_min":49,"x_max":725,"o":"m 67 440 l 171 972 l 674 972 l 674 831 l 289 831 l 239 583 l 242 581 q 421 654 308 654 q 646 561 563 654 q 725 329 725 472 q 647 97 725 194 q 389 -19 554 -19 q 151 56 243 -19 q 49 276 54 135 l 207 276 q 261 156 214 199 q 386 113 308 113 q 567 326 567 113 q 522 468 567 413 q 382 529 472 529 q 225 440 258 529 l 67 440 z "},"6":{"ha":772,"x_min":47,"x_max":725,"o":"m 396 113 q 524 175 476 113 q 567 315 567 232 q 522 456 567 399 q 396 514 478 514 q 265 454 313 514 q 221 315 221 400 q 265 175 221 231 q 396 113 314 113 m 707 726 l 549 726 q 506 823 543 786 q 407 860 468 860 q 246 742 294 860 q 206 526 217 671 l 208 524 q 418 639 274 639 q 644 546 560 639 q 725 313 725 456 q 635 75 725 169 q 401 -19 546 -19 q 117 129 203 -19 q 47 489 47 250 q 128 828 47 692 q 414 992 225 992 q 617 917 532 992 q 707 726 701 843 z "},"7":{"ha":772,"x_min":49,"x_max":714,"o":"m 49 831 l 49 972 l 714 972 l 714 840 q 351 0 385 468 l 178 0 q 299 446 193 221 q 553 831 396 653 l 49 831 z "},"8":{"ha":772,"x_min":43,"x_max":729,"o":"m 386 106 q 519 154 467 106 q 571 286 571 203 q 519 411 571 365 q 386 457 467 457 q 253 411 306 457 q 201 286 201 365 q 253 154 201 203 q 386 106 306 106 m 386 -19 q 139 63 235 -19 q 43 286 43 146 q 91 440 43 376 q 221 524 139 503 l 221 525 q 83 726 83 579 q 163 922 83 851 q 386 992 242 992 q 610 922 531 992 q 689 726 689 851 q 551 525 689 579 l 551 524 q 681 440 633 503 q 729 286 729 376 q 633 63 729 146 q 386 -19 538 -19 m 386 867 q 276 827 319 867 q 233 718 233 788 q 276 613 233 651 q 386 575 318 575 q 497 613 454 575 q 539 718 539 651 q 496 827 539 788 q 386 867 453 867 z "},"9":{"ha":772,"x_min":47,"x_max":725,"o":"m 375 860 q 247 800 293 860 q 206 661 206 746 q 247 519 206 575 q 375 457 293 457 q 507 519 460 457 q 551 661 551 575 q 506 802 551 744 q 375 860 460 860 m 65 246 l 224 246 q 267 149 229 186 q 365 113 304 113 q 526 232 478 113 q 567 446 556 301 l 564 449 q 354 332 499 332 q 132 422 217 332 q 47 660 47 511 q 137 899 47 806 q 382 992 226 992 q 657 844 574 992 q 725 483 725 722 q 644 144 725 281 q 358 -19 547 -19 q 156 55 240 -19 q 65 246 71 129 z "}," ":{"ha":386,"x_min":0,"x_max":0,"o":""},"!":{"ha":386,"x_min":100,"x_max":286,"o":"m 107 706 l 107 992 l 281 992 l 281 706 l 235 276 l 153 276 l 107 706 m 100 0 l 100 174 l 286 174 l 286 0 l 100 0 z "},"\"":{"ha":617,"x_min":115,"x_max":501,"o":"m 115 600 l 115 992 l 257 992 l 257 600 l 115 600 m 360 600 l 360 992 l 501 992 l 501 600 l 360 600 z "},"#":{"ha":772,"x_min":47,"x_max":728,"o":"m 688 396 l 688 292 l 556 292 l 514 0 l 403 0 l 443 292 l 290 292 l 249 0 l 138 0 l 178 292 l 47 292 l 47 396 l 193 396 l 218 576 l 88 576 l 88 681 l 232 681 l 272 972 l 385 972 l 343 681 l 497 681 l 538 972 l 650 972 l 608 681 l 728 681 l 728 576 l 594 576 l 569 396 l 688 396 m 483 576 l 329 576 l 304 396 l 458 396 l 483 576 z "},"$":{"ha":772,"x_min":22,"x_max":749,"o":"m 419 425 l 419 101 q 590 267 590 114 q 538 376 590 338 q 419 425 500 404 m 24 301 l 182 301 q 360 101 179 107 l 360 438 q 146 531 214 478 q 44 743 44 607 q 140 946 44 869 q 360 1015 229 1015 l 360 1124 l 419 1124 l 419 1015 q 635 949 551 1015 q 724 744 724 876 l 565 744 q 419 890 558 890 l 419 597 q 647 501 575 556 q 749 289 749 425 q 653 58 749 140 q 419 -24 567 -17 l 419 -132 l 360 -132 l 360 -24 q 114 65 206 -21 q 24 301 22 150 m 360 613 l 360 890 q 203 754 203 890 q 360 613 203 651 z "},"%":{"ha":1389,"x_min":114,"x_max":1275,"o":"m 361 -33 l 901 1006 l 1007 1006 l 469 -33 l 361 -33 m 1043 -19 q 864 63 924 -19 q 811 257 811 133 q 867 451 811 378 q 1043 533 928 533 q 1219 451 1158 533 q 1275 257 1275 378 q 1222 63 1275 133 q 1043 -19 1163 -19 m 936 257 q 1042 71 936 71 q 1150 257 1150 71 q 1042 443 1150 443 q 936 257 936 443 m 346 439 q 167 521 226 439 q 114 715 114 592 q 169 910 114 836 q 346 992 231 992 q 522 910 461 992 q 578 715 578 836 q 525 521 578 592 q 346 439 465 439 m 239 715 q 344 529 239 529 q 453 715 453 529 q 344 901 453 901 q 239 715 239 901 z "},"&":{"ha":900,"x_min":44,"x_max":919,"o":"m 419 897 q 344 867 375 897 q 314 788 314 836 q 346 699 314 746 q 404 622 375 661 q 485 689 461 661 q 521 783 521 731 q 493 865 521 833 q 419 897 465 897 m 550 217 l 356 458 q 257 396 263 401 q 203 272 203 349 q 247 150 203 194 q 363 106 292 106 q 488 146 438 106 q 550 217 510 163 m 725 0 l 635 111 q 357 -19 528 -19 q 131 59 218 -19 q 44 275 44 138 q 272 563 44 446 q 172 779 172 689 q 242 950 172 885 q 415 1015 313 1015 q 588 956 518 1015 q 663 778 663 890 q 483 526 663 622 l 638 340 q 668 474 660 403 l 807 474 q 729 231 790 326 l 919 0 l 725 0 z "},"'":{"ha":386,"x_min":122,"x_max":264,"o":"m 122 600 l 122 992 l 264 992 l 264 600 l 122 600 z "},"(":{"ha":386,"x_min":68,"x_max":397,"o":"m 397 -265 l 268 -265 q 68 375 68 53 q 268 1015 68 707 l 397 1015 q 226 375 226 710 q 397 -265 226 24 z "},")":{"ha":386,"x_min":-11,"x_max":318,"o":"m -11 1015 l 118 1015 q 318 374 318 696 q 118 -265 318 40 l -11 -265 q 160 374 160 38 q -11 1015 160 725 z "},"*":{"ha":514,"x_min":26,"x_max":489,"o":"m 181 742 l 26 794 l 57 885 l 210 825 l 210 992 l 304 992 l 304 825 l 456 885 l 489 794 l 331 742 l 428 611 l 354 557 l 256 693 l 161 557 l 83 611 l 181 742 z "},"+":{"ha":833,"x_min":67,"x_max":767,"o":"m 346 422 l 346 703 l 488 703 l 488 422 l 767 422 l 767 281 l 488 281 l 488 0 l 346 0 l 346 281 l 67 281 l 67 422 l 346 422 z "},",":{"ha":386,"x_min":96,"x_max":289,"o":"m 96 0 l 96 188 l 289 188 l 289 0 q 237 -144 289 -85 q 101 -219 185 -203 l 101 -135 q 169 -85 146 -124 q 192 0 193 -47 l 96 0 z "},"-":{"ha":540,"x_min":68,"x_max":472,"o":"m 68 303 l 68 453 l 472 453 l 472 303 l 68 303 z "},".":{"ha":386,"x_min":96,"x_max":289,"o":"m 96 0 l 96 188 l 289 188 l 289 0 l 96 0 z "},"/":{"ha":489,"x_min":-31,"x_max":519,"o":"m -31 -24 l 368 1015 l 519 1015 l 121 -24 l -31 -24 z "},":":{"ha":386,"x_min":96,"x_max":289,"o":"m 96 515 l 96 703 l 289 703 l 289 515 l 96 515 m 96 0 l 96 188 l 289 188 l 289 0 l 96 0 z "},";":{"ha":386,"x_min":96,"x_max":289,"o":"m 96 0 l 96 188 l 289 188 l 289 0 q 237 -144 289 -85 q 101 -219 185 -203 l 101 -135 q 169 -85 146 -124 q 192 0 193 -47 l 96 0 m 96 515 l 96 703 l 289 703 l 289 515 l 96 515 z "},"<":{"ha":833,"x_min":64,"x_max":769,"o":"m 769 131 l 769 -11 l 64 301 l 64 401 l 769 714 l 769 572 l 250 351 l 769 131 z "},"=":{"ha":833,"x_min":67,"x_max":767,"o":"m 767 563 l 767 421 l 67 421 l 67 563 l 767 563 m 767 282 l 767 140 l 67 140 l 67 282 l 767 282 z "},">":{"ha":833,"x_min":64,"x_max":769,"o":"m 64 131 l 583 351 l 64 572 l 64 714 l 769 401 l 769 301 l 64 -11 l 64 131 z "},"?":{"ha":772,"x_min":67,"x_max":704,"o":"m 226 676 l 68 676 q 158 923 67 831 q 401 1015 249 1015 q 619 940 533 1015 q 704 735 704 865 q 665 590 704 649 q 582 504 644 557 q 494 414 515 449 q 460 269 460 360 l 310 269 q 336 447 310 385 q 418 551 358 500 q 497 625 483 608 q 531 729 531 668 q 482 849 531 806 q 394 883 442 883 q 226 676 226 883 m 289 0 l 289 174 l 475 174 l 475 0 l 289 0 z "},"@":{"ha":1111,"x_min":68,"x_max":1043,"o":"m 501 300 q 638 386 579 300 q 692 547 692 464 q 659 633 692 596 q 582 669 626 669 q 443 588 501 669 q 390 426 390 513 q 421 335 390 371 q 501 300 451 300 m 854 753 l 754 388 q 743 325 743 344 q 768 292 743 292 q 890 378 835 292 q 949 592 949 469 q 839 836 949 743 q 578 925 735 925 q 291 805 403 925 q 179 508 179 685 q 297 186 179 308 q 590 67 411 67 q 903 204 783 67 l 1000 204 q 823 37 933 97 q 585 -24 713 -24 q 219 126 367 -24 q 68 514 68 279 q 219 869 68 722 q 578 1015 369 1015 q 903 901 768 1015 q 1043 608 1043 783 q 921 297 1043 419 q 715 194 819 194 q 633 275 638 194 l 631 275 q 475 196 560 196 q 331 260 389 196 q 272 414 272 324 q 356 660 272 553 q 576 774 446 774 q 732 674 683 774 l 757 753 l 854 753 z "},"A":{"ha":926,"x_min":-10,"x_max":938,"o":"m 460 821 l 310 394 l 613 394 l 464 821 l 460 821 m -10 0 l 371 992 l 556 992 l 938 0 l 751 0 l 658 263 l 263 263 l 169 0 l -10 0 z "},"B":{"ha":978,"x_min":106,"x_max":926,"o":"m 279 451 l 279 142 l 586 142 q 753 299 753 142 q 586 451 753 451 l 279 451 m 106 0 l 106 992 l 588 992 q 803 929 725 992 q 882 746 882 867 q 740 535 882 596 l 740 532 q 926 276 926 492 q 840 81 926 153 q 561 0 744 0 l 106 0 m 279 850 l 279 576 l 563 576 q 667 613 626 576 q 708 714 708 649 q 563 850 708 850 l 279 850 z "},"C":{"ha":1003,"x_min":53,"x_max":950,"o":"m 949 676 l 775 676 q 528 874 725 874 q 297 756 379 874 q 226 496 226 653 q 297 236 226 339 q 528 118 379 118 q 707 194 639 118 q 781 378 769 264 l 950 378 q 823 88 939 199 q 528 -24 707 -24 q 179 131 311 -24 q 53 496 53 276 q 179 863 53 717 q 528 1015 311 1015 q 814 926 699 1015 q 949 676 933 833 z "},"D":{"ha":1003,"x_min":106,"x_max":954,"o":"m 279 850 l 279 142 l 450 142 q 718 244 639 142 q 781 496 781 328 q 718 747 781 664 q 450 850 639 850 l 279 850 m 106 0 l 106 992 l 517 992 q 850 846 735 992 q 954 496 954 715 q 850 146 954 276 q 517 0 735 0 l 106 0 z "},"E":{"ha":875,"x_min":106,"x_max":829,"o":"m 106 0 l 106 992 l 819 992 l 819 842 l 279 842 l 279 582 l 779 582 l 779 440 l 279 440 l 279 150 l 829 150 l 829 0 l 106 0 z "},"F":{"ha":824,"x_min":106,"x_max":790,"o":"m 106 0 l 106 992 l 790 992 l 790 842 l 279 842 l 279 582 l 728 582 l 728 440 l 279 440 l 279 0 l 106 0 z "},"G":{"ha":1054,"x_min":60,"x_max":971,"o":"m 971 522 l 971 0 l 860 0 l 833 117 q 697 8 765 39 q 535 -24 628 -24 q 186 131 318 -24 q 60 496 60 276 q 186 863 60 715 q 535 1015 318 1015 q 818 929 704 1015 q 960 676 940 839 l 790 676 q 703 824 778 771 q 535 874 633 874 q 304 756 386 874 q 233 496 233 653 q 304 236 233 339 q 535 118 385 119 q 738 190 667 117 q 813 390 810 263 l 549 390 l 549 522 l 971 522 z "},"H":{"ha":1003,"x_min":101,"x_max":900,"o":"m 101 0 l 101 992 l 275 992 l 275 597 l 726 597 l 726 992 l 900 992 l 900 0 l 726 0 l 726 447 l 275 447 l 275 0 l 101 0 z "},"I":{"ha":386,"x_min":106,"x_max":279,"o":"m 106 0 l 106 992 l 279 992 l 279 0 l 106 0 z "},"J":{"ha":746,"x_min":18,"x_max":640,"o":"m 640 992 l 640 319 q 583 83 640 163 q 314 -24 507 -24 q 88 68 164 -24 q 18 294 18 150 l 18 347 l 192 347 l 192 296 q 221 165 192 207 q 328 118 253 118 q 439 168 408 118 q 467 310 467 210 l 467 992 l 640 992 z "},"K":{"ha":951,"x_min":106,"x_max":963,"o":"m 106 0 l 106 992 l 279 992 l 279 540 l 721 992 l 935 992 l 539 596 l 963 0 l 746 0 l 421 474 l 279 333 l 279 0 l 106 0 z "},"L":{"ha":797,"x_min":106,"x_max":783,"o":"m 106 0 l 106 992 l 279 992 l 279 150 l 783 150 l 783 0 l 106 0 z "},"M":{"ha":1235,"x_min":103,"x_max":1132,"o":"m 103 0 l 103 992 l 347 992 l 621 215 l 624 215 l 890 992 l 1132 992 l 1132 0 l 967 0 l 967 765 l 964 765 l 689 0 l 546 0 l 271 765 l 268 765 l 268 0 l 103 0 z "},"N":{"ha":1003,"x_min":99,"x_max":903,"o":"m 99 0 l 99 992 l 282 992 l 735 261 l 738 261 l 738 992 l 903 992 l 903 0 l 719 0 l 268 729 l 264 729 l 264 0 l 99 0 z "},"O":{"ha":1056,"x_min":53,"x_max":1003,"o":"m 528 1015 q 876 863 744 1015 q 1003 496 1003 715 q 876 131 1003 276 q 528 -24 744 -24 q 179 131 311 -24 q 53 496 53 276 q 179 863 53 715 q 528 1015 311 1015 m 528 874 q 297 756 379 874 q 226 496 226 653 q 297 236 226 339 q 528 118 379 118 q 758 236 676 118 q 829 496 829 339 q 758 756 829 653 q 528 874 676 874 z "},"P":{"ha":926,"x_min":106,"x_max":881,"o":"m 279 850 l 279 522 l 533 522 q 650 557 603 522 q 707 686 707 600 q 536 850 707 850 l 279 850 m 106 0 l 106 992 l 543 992 q 818 885 732 992 q 881 685 881 807 q 818 488 881 564 q 543 381 732 381 l 279 381 l 279 0 l 106 0 z "},"Q":{"ha":1056,"x_min":53,"x_max":1003,"o":"m 639 142 l 539 229 l 622 325 l 743 219 q 829 496 829 322 q 758 756 829 653 q 528 874 676 874 q 297 756 379 874 q 226 496 226 653 q 297 236 226 339 q 528 118 379 118 q 639 142 590 118 m 863 115 l 990 4 l 906 -90 l 761 36 q 528 -24 656 -24 q 179 131 311 -24 q 53 496 53 276 q 179 863 53 715 q 528 1015 311 1015 q 876 863 744 1015 q 1003 496 1003 715 q 863 115 1003 250 z "},"R":{"ha":978,"x_min":106,"x_max":944,"o":"m 279 850 l 279 540 l 564 540 q 733 699 733 540 q 561 850 733 850 l 279 850 m 106 0 l 106 992 l 579 992 q 824 922 740 992 q 907 724 907 851 q 743 474 907 531 l 743 471 q 890 261 890 450 q 944 0 890 58 l 758 0 q 732 146 732 43 q 693 346 732 289 q 535 408 650 408 l 279 408 l 279 0 l 106 0 z "},"S":{"ha":900,"x_min":46,"x_max":854,"o":"m 46 331 l 219 331 q 293 167 219 222 q 471 118 358 118 q 633 165 578 118 q 681 268 681 206 q 599 390 681 360 q 303 472 588 394 q 83 724 83 532 q 197 944 83 864 q 446 1015 299 1015 q 714 935 608 1015 q 826 699 826 847 l 653 699 q 439 874 642 874 q 318 847 367 874 q 257 744 257 813 q 375 617 257 649 q 661 540 493 586 q 807 438 754 513 q 854 288 854 369 q 731 49 854 132 q 460 -24 624 -24 q 169 61 279 -24 q 46 331 49 154 z "},"T":{"ha":824,"x_min":11,"x_max":814,"o":"m 11 842 l 11 992 l 814 992 l 814 842 l 499 842 l 499 0 l 325 0 l 325 842 l 11 842 z "},"U":{"ha":1003,"x_min":94,"x_max":908,"o":"m 94 357 l 94 992 l 268 992 l 268 414 q 300 221 268 279 q 501 126 351 126 q 703 221 651 126 q 735 414 735 279 l 735 992 l 908 992 l 908 357 q 797 71 908 171 q 501 -24 690 -24 q 207 71 313 -24 q 94 357 94 171 z "},"V":{"ha":849,"x_min":-7,"x_max":856,"o":"m 324 0 l -7 992 l 174 992 l 422 207 l 425 207 l 679 992 l 856 992 l 517 0 l 324 0 z "},"W":{"ha":1311,"x_min":8,"x_max":1303,"o":"m 269 0 l 8 992 l 185 992 l 364 233 l 367 233 l 567 992 l 744 992 l 939 233 l 942 233 l 1126 992 l 1303 992 l 1029 0 l 853 0 l 654 758 l 651 758 l 449 0 l 269 0 z "},"X":{"ha":900,"x_min":-4,"x_max":904,"o":"m 347 514 l 19 992 l 226 992 l 451 642 l 686 992 l 881 992 l 553 514 l 904 0 l 693 0 l 446 379 l 194 0 l -4 0 l 347 514 z "},"Y":{"ha":900,"x_min":-8,"x_max":908,"o":"m 364 0 l 364 389 l -8 992 l 193 992 l 456 547 l 714 992 l 908 992 l 538 389 l 538 0 l 364 0 z "},"Z":{"ha":875,"x_min":32,"x_max":844,"o":"m 76 842 l 76 992 l 831 992 l 831 860 l 253 150 l 844 150 l 844 0 l 32 0 l 32 142 l 610 842 l 76 842 z "},"[":{"ha":411,"x_min":100,"x_max":410,"o":"m 100 -265 l 100 1015 l 410 1015 l 410 890 l 250 890 l 250 -140 l 410 -140 l 410 -265 l 100 -265 z "},"\\":{"ha":489,"x_min":-31,"x_max":519,"o":"m 121 1015 l 519 -24 l 368 -24 l -31 1015 l 121 1015 z "},"]":{"ha":411,"x_min":1,"x_max":311,"o":"m 311 1015 l 311 -265 l 1 -265 l 1 -140 l 161 -140 l 161 890 l 1 890 l 1 1015 l 311 1015 z "},"^":{"ha":833,"x_min":117,"x_max":717,"o":"m 258 465 l 117 465 l 367 972 l 467 972 l 717 465 l 575 465 l 417 808 l 258 465 z "},"_":{"ha":694,"x_min":0,"x_max":694,"o":"m 694 -174 l 0 -174 l 0 -104 l 694 -104 l 694 -174 z "},"`":{"ha":335,"x_min":-40,"x_max":272,"o":"m -40 1015 l 146 1015 l 272 817 l 157 817 l -40 1015 z "},"a":{"ha":772,"x_min":44,"x_max":761,"o":"m 526 242 l 526 360 q 438 331 496 340 q 332 317 385 324 q 203 197 203 294 q 256 125 203 150 q 349 106 296 106 q 464 136 413 106 q 526 242 526 174 m 685 529 l 685 160 q 722 106 685 106 q 761 108 744 106 l 761 -1 q 661 -19 710 -19 q 539 68 556 -19 q 290 -19 450 -19 q 119 33 186 -19 q 44 190 44 90 q 133 363 44 310 q 321 414 188 394 q 471 436 471 436 q 536 515 536 456 q 388 613 536 613 q 229 499 239 613 l 71 499 q 397 738 85 738 q 593 690 515 738 q 685 529 685 635 z "},"b":{"ha":849,"x_min":88,"x_max":799,"o":"m 640 358 q 590 535 640 463 q 442 613 535 613 q 292 544 344 613 q 240 358 240 476 q 294 176 240 247 q 442 106 349 106 q 596 185 542 106 q 640 358 640 253 m 88 0 l 88 992 l 246 992 l 246 625 l 249 625 q 340 707 281 676 q 463 738 400 738 q 715 625 625 738 q 799 356 799 522 q 724 96 799 199 q 489 -19 639 -19 q 240 99 300 -19 l 238 99 l 238 0 l 88 0 z "},"c":{"ha":772,"x_min":49,"x_max":726,"o":"m 726 478 l 568 478 q 404 613 549 613 q 275 564 325 613 q 207 351 207 497 q 250 183 207 250 q 397 106 301 106 q 512 149 467 106 q 568 269 557 193 l 726 269 q 397 -19 681 -19 q 139 88 233 -19 q 49 351 49 188 q 138 626 49 522 q 403 738 232 738 q 621 674 535 738 q 726 478 715 604 z "},"d":{"ha":849,"x_min":49,"x_max":760,"o":"m 207 351 q 254 182 207 250 q 406 106 308 106 q 560 186 504 106 q 607 360 607 256 q 553 545 607 478 q 408 613 500 613 q 251 531 306 613 q 207 351 207 461 m 760 992 l 760 0 l 610 0 l 610 97 l 607 97 q 385 -19 547 -19 q 132 92 221 -19 q 49 364 49 194 q 146 649 49 547 q 360 738 231 738 q 599 625 529 738 l 601 625 l 601 992 l 760 992 z "},"e":{"ha":772,"x_min":49,"x_max":738,"o":"m 735 318 l 207 318 q 254 169 207 228 q 400 106 306 106 q 575 225 533 106 l 725 225 q 610 45 700 110 q 400 -19 521 -19 q 142 85 235 -19 q 49 358 49 189 q 142 625 49 517 q 396 738 240 738 q 644 626 547 738 q 738 371 738 522 q 735 318 738 344 m 207 422 l 576 422 q 523 557 572 501 q 396 613 474 613 q 263 558 315 613 q 207 422 210 504 z "},"f":{"ha":438,"x_min":13,"x_max":440,"o":"m 13 600 l 13 718 l 131 718 l 131 778 q 192 954 131 903 q 329 992 238 992 q 440 982 406 992 l 440 858 q 367 867 410 867 q 289 792 289 867 l 289 718 l 424 718 l 424 600 l 289 600 l 289 0 l 131 0 l 131 600 l 13 600 z "},"g":{"ha":824,"x_min":49,"x_max":747,"o":"m 396 125 q 544 204 493 125 q 589 375 589 272 q 544 540 589 476 q 396 613 493 613 q 249 532 299 613 q 207 363 207 465 q 251 200 207 265 q 396 125 303 125 m 747 718 l 747 38 q 394 -285 747 -285 q 185 -236 269 -285 q 74 -61 83 -178 l 232 -61 q 404 -167 254 -167 q 589 17 589 -167 l 589 126 l 586 126 q 371 0 515 0 q 125 113 208 0 q 49 378 49 211 q 135 631 49 529 q 374 738 225 738 q 586 619 528 738 l 589 619 l 589 718 l 747 718 z "},"h":{"ha":797,"x_min":83,"x_max":714,"o":"m 83 0 l 83 992 l 242 992 l 242 624 l 244 624 q 333 706 275 674 q 460 738 390 738 q 647 675 579 738 q 714 493 714 613 l 714 0 l 556 0 l 556 451 q 415 613 556 613 q 290 558 338 613 q 242 424 242 504 l 242 0 l 83 0 z "},"i":{"ha":335,"x_min":88,"x_max":246,"o":"m 88 0 l 88 718 l 246 718 l 246 0 l 88 0 m 88 842 l 88 992 l 246 992 l 246 842 l 88 842 z "},"j":{"ha":335,"x_min":-31,"x_max":246,"o":"m 88 -54 l 88 718 l 246 718 l 246 -61 q 40 -285 246 -285 q -31 -279 11 -285 l -31 -154 q 24 -160 11 -160 q 78 -133 64 -160 q 88 -54 88 -112 m 88 842 l 88 992 l 246 992 l 246 842 l 88 842 z "},"k":{"ha":746,"x_min":88,"x_max":753,"o":"m 88 0 l 88 992 l 246 992 l 246 428 l 532 718 l 726 718 l 451 454 l 753 0 l 560 0 l 340 349 l 246 257 l 246 0 l 88 0 z "},"l":{"ha":335,"x_min":88,"x_max":246,"o":"m 88 0 l 88 992 l 246 992 l 246 0 l 88 0 z "},"m":{"ha":1208,"x_min":83,"x_max":1125,"o":"m 83 0 l 83 718 l 233 718 l 233 618 l 238 618 q 458 738 317 738 q 660 618 613 738 q 885 738 746 738 q 1125 496 1125 738 l 1125 0 l 967 0 l 967 419 q 947 558 967 521 q 836 613 921 613 q 683 421 683 613 l 683 0 l 525 0 l 525 461 q 497 576 525 539 q 399 613 468 613 q 288 563 333 613 q 242 426 242 513 l 242 0 l 83 0 z "},"n":{"ha":797,"x_min":83,"x_max":714,"o":"m 83 0 l 83 718 l 233 718 l 233 613 l 236 610 q 460 738 313 738 q 647 675 579 738 q 714 493 714 613 l 714 0 l 556 0 l 556 451 q 415 613 556 613 q 290 558 338 613 q 242 424 242 504 l 242 0 l 83 0 z "},"o":{"ha":824,"x_min":50,"x_max":775,"o":"m 413 106 q 568 186 513 106 q 617 360 617 256 q 568 532 617 463 q 413 613 513 613 q 257 532 313 613 q 208 360 208 463 q 257 186 208 256 q 413 106 313 106 m 413 -19 q 144 88 243 -19 q 50 360 50 190 q 147 633 50 528 q 413 738 243 738 q 681 631 582 738 q 775 360 775 528 q 681 88 775 190 q 413 -19 582 -19 z "},"p":{"ha":849,"x_min":88,"x_max":799,"o":"m 640 358 q 590 535 640 463 q 442 613 535 613 q 292 544 344 613 q 240 358 240 476 q 294 176 240 247 q 442 106 349 106 q 596 185 542 106 q 640 358 640 253 m 88 -265 l 88 718 l 238 718 l 238 621 l 240 621 q 463 738 304 738 q 715 625 625 738 q 799 356 799 522 q 724 96 799 199 q 489 -19 639 -19 q 249 93 319 -19 l 246 93 l 246 -265 l 88 -265 z "},"q":{"ha":849,"x_min":49,"x_max":760,"o":"m 207 358 q 253 185 207 253 q 406 106 306 106 q 558 176 506 106 q 607 358 607 242 q 555 544 607 476 q 406 613 503 613 q 257 535 313 613 q 207 358 207 463 m 760 718 l 760 -265 l 601 -265 l 601 93 l 599 93 q 358 -19 528 -19 q 124 96 208 -19 q 49 356 49 199 q 132 625 49 522 q 385 738 222 738 q 607 621 543 738 l 610 621 l 610 718 l 760 718 z "},"r":{"ha":489,"x_min":83,"x_max":504,"o":"m 83 0 l 83 718 l 232 718 l 232 579 l 235 579 q 311 688 249 639 q 444 738 374 738 q 504 733 463 738 l 504 581 q 436 588 449 588 q 299 524 351 588 q 242 342 242 457 l 242 0 l 83 0 z "},"s":{"ha":721,"x_min":44,"x_max":683,"o":"m 44 231 l 203 231 q 365 106 214 106 q 525 200 529 106 q 400 296 522 267 q 179 354 196 346 q 60 532 60 407 q 161 693 60 639 q 360 738 242 738 q 558 688 481 738 q 660 517 646 629 l 494 517 q 349 613 476 613 q 218 539 218 613 q 292 463 218 489 q 451 424 306 457 q 611 363 560 399 q 683 214 683 310 q 579 33 683 96 q 363 -19 492 -19 q 138 42 221 -19 q 44 231 46 108 z "},"t":{"ha":463,"x_min":11,"x_max":432,"o":"m 11 600 l 11 718 l 131 718 l 131 933 l 289 933 l 289 718 l 432 718 l 432 600 l 289 600 l 289 217 q 300 143 289 161 q 365 118 315 118 q 432 124 410 118 l 432 1 q 329 -7 328 -7 q 168 40 213 -7 q 131 176 131 79 l 131 600 l 11 600 z "},"u":{"ha":797,"x_min":83,"x_max":714,"o":"m 714 718 l 714 0 l 558 0 l 558 100 l 556 100 q 469 14 526 47 q 351 -19 411 -19 q 83 263 83 -19 l 83 718 l 242 718 l 242 278 q 379 106 242 106 q 556 301 556 106 l 556 718 l 714 718 z "},"v":{"ha":721,"x_min":13,"x_max":708,"o":"m 274 0 l 13 718 l 185 718 l 367 167 l 369 167 l 544 718 l 708 718 l 451 0 l 274 0 z "},"w":{"ha":1081,"x_min":18,"x_max":1063,"o":"m 240 0 l 18 718 l 186 718 l 326 182 l 329 182 l 464 718 l 624 718 l 753 182 l 756 182 l 901 718 l 1063 718 l 838 0 l 675 0 l 542 533 l 539 533 l 407 0 l 240 0 z "},"x":{"ha":746,"x_min":6,"x_max":740,"o":"m 6 0 l 276 378 l 28 718 l 219 718 l 369 497 l 526 718 l 710 718 l 465 386 l 740 0 l 550 0 l 368 265 l 192 0 l 6 0 z "},"y":{"ha":721,"x_min":4,"x_max":715,"o":"m 276 3 l 4 718 l 178 718 l 365 182 l 368 182 l 550 718 l 715 718 l 436 -39 q 353 -211 389 -167 q 182 -285 293 -285 q 72 -276 126 -285 l 72 -143 q 147 -153 131 -153 q 224 -125 197 -153 q 258 -53 242 -106 l 276 3 z "},"z":{"ha":694,"x_min":31,"x_max":663,"o":"m 58 593 l 58 718 l 642 718 l 642 607 l 231 125 l 663 125 l 663 0 l 31 0 l 31 111 l 428 593 l 58 593 z "},"{":{"ha":411,"x_min":-6,"x_max":429,"o":"m -6 313 l -6 438 q 75 458 38 438 q 125 539 125 486 l 125 825 q 192 969 125 913 q 303 1015 246 1015 l 429 1015 l 429 890 l 353 890 q 275 793 275 890 l 275 522 q 219 410 275 449 q 131 376 182 383 l 131 374 q 275 219 275 360 l 275 -43 q 353 -140 275 -140 l 429 -140 l 429 -265 l 303 -265 q 192 -219 246 -265 q 125 -75 125 -162 l 125 200 q 75 290 125 260 q -6 313 38 313 z "},"|":{"ha":308,"x_min":83,"x_max":225,"o":"m 83 -24 l 83 1015 l 225 1015 l 225 -24 l 83 -24 z "},"}":{"ha":411,"x_min":-18,"x_max":417,"o":"m 417 438 l 417 313 q 338 292 374 313 q 286 211 286 264 l 286 -75 q 219 -219 286 -162 q 108 -265 165 -265 l -18 -265 l -18 -140 l 58 -140 q 136 -43 136 -140 l 136 228 q 192 340 136 301 q 281 374 229 367 l 281 376 q 136 531 136 390 l 136 793 q 58 890 136 890 l -18 890 l -18 1015 l 108 1015 q 219 969 165 1015 q 286 825 286 913 l 286 550 q 338 460 286 490 q 417 438 374 438 z "},"~":{"ha":833,"x_min":96,"x_max":738,"o":"m 688 469 l 688 469 l 738 353 q 668 271 696 294 q 564 233 621 233 q 422 279 506 233 q 263 328 335 328 q 146 233 194 328 l 96 350 q 269 469 158 469 q 424 425 322 469 q 565 375 538 375 q 635 406 601 375 q 688 469 653 422 z "},"¡":{"ha":386,"x_min":100,"x_max":286,"o":"m 281 29 l 281 -254 l 107 -254 l 107 29 l 153 461 l 235 461 l 281 29 m 286 738 l 286 564 l 100 564 l 100 738 l 286 738 z "},"¢":{"ha":772,"x_min":51,"x_max":733,"o":"m 372 106 l 372 613 q 246 521 288 604 q 210 351 210 451 q 247 193 210 258 q 372 106 290 118 m 372 -144 l 372 -19 q 136 90 226 -19 q 51 351 51 194 q 141 631 51 525 q 372 738 231 738 l 372 863 l 432 863 l 432 738 q 634 667 550 738 q 728 478 718 596 l 569 478 q 524 575 563 538 q 432 613 486 613 l 432 106 q 575 269 557 126 l 733 269 q 432 -19 681 -19 l 432 -144 l 372 -144 z "},"£":{"ha":772,"x_min":43,"x_max":769,"o":"m 43 443 l 43 533 l 131 533 q 65 729 65 614 q 168 938 65 854 q 390 1015 263 1015 q 645 928 553 1015 q 739 672 738 840 l 581 672 q 393 883 571 883 q 285 842 326 883 q 239 721 239 796 q 303 533 239 651 l 507 533 l 507 443 l 336 443 q 358 350 358 401 q 218 122 358 226 l 221 119 q 349 157 315 157 q 459 133 390 157 q 564 108 528 108 q 699 161 638 108 l 769 54 q 547 -24 679 -24 q 479 -15 521 -24 q 410 -3 414 -3 q 264 25 318 25 q 124 -22 179 25 l 50 90 q 150 188 108 129 q 200 315 200 256 q 171 443 200 382 l 43 443 z "},"¤":{"ha":772,"x_min":28,"x_max":744,"o":"m 106 125 l 28 203 l 107 288 q 38 485 38 365 q 107 685 38 617 l 28 769 l 107 849 l 186 771 q 389 835 261 835 q 579 772 510 835 l 660 851 l 744 767 l 667 686 q 732 488 732 617 q 665 285 732 364 l 742 203 l 665 126 l 586 207 q 388 138 514 138 q 183 206 258 138 l 106 125 m 388 279 q 526 340 471 279 q 582 488 582 401 q 526 632 582 571 q 389 693 471 693 q 245 633 303 693 q 188 485 188 572 q 245 339 188 399 q 388 279 303 279 z "},"¥":{"ha":772,"x_min":-7,"x_max":779,"o":"m 307 0 l 307 229 l 117 229 l 117 319 l 307 319 l 307 414 l 117 414 l 117 504 l 253 504 l -7 992 l 169 992 l 386 547 l 607 992 l 779 992 l 518 504 l 656 504 l 656 414 l 465 414 l 465 319 l 656 319 l 656 229 l 465 229 l 465 0 l 307 0 z "},"¦":{"ha":308,"x_min":83,"x_max":225,"o":"m 83 -24 l 83 382 l 225 382 l 225 -24 l 83 -24 m 83 610 l 83 1015 l 225 1015 l 225 610 l 83 610 z "},"§":{"ha":772,"x_min":31,"x_max":743,"o":"m 496 431 l 265 563 q 204 521 228 551 q 181 451 181 490 q 257 343 181 386 l 510 201 q 593 315 593 238 q 496 431 593 375 m 674 753 l 524 753 q 486 851 521 813 q 393 890 451 890 q 314 861 349 890 q 279 786 279 832 q 351 679 279 729 q 510 593 379 660 q 669 490 619 538 q 743 331 743 419 q 701 208 743 265 q 596 131 658 151 q 672 -47 672 67 q 589 -225 672 -160 q 397 -285 511 -285 q 186 -211 267 -285 q 97 0 101 -135 l 247 0 q 393 -160 258 -160 q 514 -47 514 -160 q 439 75 514 19 q 275 167 406 99 q 107 274 160 226 q 31 433 31 344 q 181 640 31 576 q 121 781 121 701 q 208 954 121 886 q 394 1015 288 1015 q 594 944 515 1015 q 674 753 672 874 z "},"¨":{"ha":335,"x_min":-31,"x_max":367,"o":"m 208 982 l 367 982 l 367 832 l 208 832 l 208 982 m 128 832 l -31 832 l -31 982 l 128 982 l 128 832 z "},"©":{"ha":1111,"x_min":46,"x_max":1065,"o":"m 1065 496 q 916 122 1065 267 q 557 -24 767 -24 q 190 124 335 -24 q 46 496 46 272 q 199 872 46 725 q 557 1015 344 1015 q 914 872 767 1015 q 1065 496 1065 725 m 954 496 q 840 804 954 683 q 557 925 725 925 q 272 804 386 925 q 157 496 157 683 q 264 193 157 314 q 557 67 376 67 q 840 188 726 67 q 954 496 954 308 m 724 396 l 819 396 q 734 240 801 299 q 574 182 667 182 q 360 271 442 182 q 279 496 279 360 q 358 710 279 625 q 571 794 438 794 q 736 740 668 794 q 818 585 804 685 l 724 585 q 671 672 713 639 q 571 704 629 704 q 438 645 486 704 q 390 496 390 586 q 441 338 390 403 q 574 272 492 272 q 676 307 635 272 q 724 396 717 342 z "},"ª":{"ha":528,"x_min":22,"x_max":506,"o":"m 339 682 l 339 743 q 222 717 317 732 q 143 654 143 704 q 221 608 143 608 q 339 682 339 608 m 460 863 l 460 653 q 483 622 460 621 q 506 624 490 622 l 506 529 q 440 518 475 518 q 354 586 365 518 q 285 538 335 557 q 192 518 236 518 q 72 552 122 518 q 22 647 22 586 q 83 751 22 718 q 210 786 118 771 q 301 804 289 800 q 339 839 339 815 q 256 901 339 901 q 158 843 164 901 l 40 843 q 263 992 54 992 q 397 961 343 992 q 460 863 460 926 z "},"«":{"ha":643,"x_min":69,"x_max":560,"o":"m 285 129 l 69 300 l 69 456 l 285 626 l 285 483 l 153 378 l 285 272 l 285 129 m 560 129 l 344 300 l 344 456 l 560 626 l 560 483 l 428 378 l 560 272 l 560 129 z "},"¬":{"ha":833,"x_min":67,"x_max":767,"o":"m 625 150 l 625 421 l 67 421 l 67 563 l 767 563 l 767 150 l 625 150 z "},"®":{"ha":1111,"x_min":46,"x_max":1065,"o":"m 454 444 l 454 199 l 360 199 l 360 774 l 578 774 q 788 608 788 774 q 638 451 788 468 l 799 199 l 692 199 l 543 444 l 454 444 m 454 525 l 560 525 q 653 539 625 525 q 693 615 693 558 q 568 693 693 693 l 454 693 l 454 525 m 1065 496 q 916 122 1065 267 q 557 -24 767 -24 q 190 124 335 -24 q 46 496 46 272 q 199 872 46 725 q 557 1015 344 1015 q 914 872 767 1015 q 1065 496 1065 725 m 954 496 q 840 804 954 683 q 557 925 725 925 q 272 804 386 925 q 157 496 157 683 q 264 193 157 314 q 557 67 376 67 q 840 188 726 67 q 954 496 954 308 z "},"°":{"ha":556,"x_min":69,"x_max":486,"o":"m 69 783 q 131 931 69 869 q 278 992 192 992 q 425 931 364 992 q 486 783 486 869 q 425 636 486 697 q 278 575 364 575 q 131 636 192 575 q 69 783 69 697 m 147 783 q 185 691 147 729 q 278 653 224 653 q 370 691 332 653 q 408 783 408 729 q 370 876 408 838 q 278 914 332 914 q 185 876 224 914 q 147 783 147 838 z "},"±":{"ha":833,"x_min":67,"x_max":767,"o":"m 346 529 l 346 703 l 488 703 l 488 529 l 767 529 l 767 388 l 488 388 l 488 214 l 346 214 l 346 388 l 67 388 l 67 529 l 346 529 m 67 0 l 67 142 l 767 142 l 767 0 l 67 0 z "},"²":{"ha":500,"x_min":29,"x_max":481,"o":"m 467 476 l 467 379 l 29 379 q 168 617 31 528 q 294 699 292 696 q 360 808 358 750 q 258 894 361 894 q 157 765 163 894 l 36 765 q 97 931 36 871 q 264 992 158 992 q 417 950 358 992 q 481 811 481 901 q 339 615 481 707 q 234 547 286 582 q 171 476 182 513 l 467 476 z "},"³":{"ha":500,"x_min":22,"x_max":479,"o":"m 203 660 l 203 740 q 299 757 261 738 q 343 825 343 779 q 311 879 343 860 q 247 894 285 894 q 173 865 201 894 q 146 789 144 835 l 35 789 q 96 938 39 885 q 249 992 153 992 q 390 956 335 992 q 454 831 454 913 q 365 706 454 736 l 365 703 q 449 653 418 693 q 479 557 479 614 q 414 417 479 468 q 250 367 349 367 q 22 582 26 367 l 133 582 q 162 497 131 531 q 250 464 193 464 q 334 491 300 464 q 368 563 368 518 q 203 660 368 665 z "},"´":{"ha":335,"x_min":63,"x_max":375,"o":"m 63 817 l 188 1015 l 375 1015 l 178 817 l 63 817 z "},"¶":{"ha":833,"x_min":43,"x_max":726,"o":"m 342 -222 l 342 478 q 126 549 208 478 q 43 731 43 619 q 367 992 43 992 l 726 992 l 726 -222 l 615 -222 l 615 901 l 453 901 l 453 -222 l 342 -222 z "},"¸":{"ha":335,"x_min":13,"x_max":324,"o":"m 13 -278 l 38 -222 q 128 -244 104 -244 q 213 -187 213 -244 q 193 -149 213 -162 q 149 -135 174 -135 q 94 -149 118 -135 l 64 -122 l 156 0 l 222 0 l 160 -81 l 160 -83 q 206 -79 171 -79 q 285 -104 251 -79 q 324 -182 324 -133 q 269 -281 324 -247 q 156 -307 225 -307 q 13 -278 63 -307 z "},"¹":{"ha":500,"x_min":50,"x_max":339,"o":"m 50 801 l 50 882 q 242 979 218 882 l 339 979 l 339 379 l 218 379 l 218 801 l 50 801 z "},"º":{"ha":528,"x_min":21,"x_max":515,"o":"m 394 754 q 364 854 396 811 q 268 901 328 901 q 172 854 208 901 q 142 754 142 813 q 172 656 142 696 q 268 608 208 608 q 364 656 329 608 q 394 754 393 694 m 515 754 q 453 583 515 646 q 268 518 386 518 q 85 582 150 518 q 21 754 21 646 q 85 927 21 863 q 268 992 150 992 q 453 926 386 992 q 515 754 515 863 z "},"»":{"ha":643,"x_min":83,"x_max":574,"o":"m 83 626 l 299 456 l 299 300 l 83 129 l 83 272 l 215 378 l 83 483 l 83 626 m 358 626 l 574 456 l 574 300 l 358 129 l 358 272 l 490 378 l 358 483 l 358 626 z "},"¼":{"ha":1158,"x_min":51,"x_max":1064,"o":"m 999 135 l 999 0 l 878 0 l 878 135 l 607 135 l 607 247 l 864 594 l 999 594 l 999 239 l 1064 239 l 1064 135 l 999 135 m 878 239 l 878 458 l 875 458 l 713 239 l 878 239 m 51 801 l 51 882 q 243 979 219 882 l 340 979 l 340 379 l 219 379 l 219 801 l 51 801 m 196 -33 l 778 1006 l 886 1006 l 306 -33 l 196 -33 z "},"½":{"ha":1158,"x_min":50,"x_max":1108,"o":"m 190 -33 l 772 1006 l 881 1006 l 300 -33 l 190 -33 m 50 801 l 50 882 q 242 979 218 882 l 339 979 l 339 379 l 218 379 l 218 801 l 50 801 m 1094 97 l 1094 0 l 657 0 q 708 161 657 93 q 822 256 744 207 q 935 328 932 325 q 988 429 988 371 q 959 497 988 472 q 886 522 931 522 q 785 386 790 522 l 664 386 q 724 557 664 494 q 892 619 783 619 q 1044 574 986 619 q 1108 432 1108 524 q 967 236 1108 326 q 863 171 914 203 q 799 97 810 133 l 1094 97 z "},"¾":{"ha":1158,"x_min":22,"x_max":1115,"o":"m 1050 135 l 1050 0 l 929 0 l 929 135 l 658 135 l 658 247 l 913 594 l 1050 594 l 1050 239 l 1115 239 l 1115 135 l 1050 135 m 929 239 l 929 458 l 926 458 l 764 239 l 929 239 m 272 -33 l 854 1006 l 963 1006 l 382 -33 l 272 -33 m 203 658 l 203 739 q 299 756 261 736 q 343 825 343 779 q 311 879 343 860 q 247 894 285 894 q 173 865 201 894 q 146 789 144 835 l 35 789 q 96 938 39 885 q 249 992 153 992 q 390 956 335 992 q 454 831 454 913 q 365 706 454 736 l 365 703 q 449 653 418 693 q 479 557 479 614 q 414 417 479 468 q 250 367 349 367 q 22 582 26 367 l 133 582 q 162 497 131 531 q 250 464 193 464 q 334 491 300 464 q 368 563 368 518 q 203 658 368 664 z "},"¿":{"ha":772,"x_min":68,"x_max":706,"o":"m 546 54 l 704 54 q 615 -186 706 -94 q 371 -278 524 -278 q 154 -204 240 -278 q 68 -4 68 -131 q 107 140 68 82 q 192 228 128 174 q 278 317 257 282 q 313 461 313 371 l 463 461 q 436 283 463 346 q 354 179 414 231 q 275 106 289 122 q 242 1 242 63 q 292 -112 242 -69 q 378 -146 331 -146 q 503 -92 461 -146 q 546 54 546 -37 m 292 738 l 478 738 l 478 564 l 292 564 l 292 738 z "},"À":{"ha":926,"x_min":-10,"x_max":938,"o":"m 460 821 l 310 394 l 613 394 l 464 821 l 460 821 m -10 0 l 371 992 l 556 992 l 938 0 l 751 0 l 658 263 l 263 263 l 169 0 l -10 0 m 256 1289 l 442 1289 l 568 1090 l 453 1090 l 256 1289 z "},"Á":{"ha":926,"x_min":-10,"x_max":938,"o":"m 460 821 l 310 394 l 613 394 l 464 821 l 460 821 m -10 0 l 371 992 l 556 992 l 938 0 l 751 0 l 658 263 l 263 263 l 169 0 l -10 0 m 358 1069 l 483 1268 l 671 1268 l 474 1069 l 358 1069 z "},"Â":{"ha":926,"x_min":-10,"x_max":938,"o":"m 460 821 l 310 394 l 613 394 l 464 821 l 460 821 m -10 0 l 371 992 l 556 992 l 938 0 l 751 0 l 658 263 l 263 263 l 169 0 l -10 0 m 463 1215 l 365 1090 l 238 1090 l 386 1289 l 540 1289 l 690 1090 l 561 1090 l 463 1215 z "},"Ã":{"ha":926,"x_min":-10,"x_max":938,"o":"m 460 821 l 310 394 l 613 394 l 464 821 l 460 821 m -10 0 l 371 992 l 556 992 l 938 0 l 751 0 l 658 263 l 263 263 l 169 0 l -10 0 m 631 1265 l 631 1265 l 708 1265 q 554 1106 683 1106 q 453 1131 522 1106 q 356 1157 385 1157 q 315 1139 332 1157 q 297 1100 297 1121 l 218 1100 q 263 1206 228 1161 q 363 1257 304 1257 q 473 1231 408 1257 q 561 1204 538 1204 q 631 1265 614 1204 z "},"Ä":{"ha":926,"x_min":-10,"x_max":938,"o":"m 460 821 l 310 394 l 613 394 l 464 821 l 460 821 m -10 0 l 371 992 l 556 992 l 938 0 l 751 0 l 658 263 l 263 263 l 169 0 l -10 0 m 504 1256 l 663 1256 l 663 1106 l 504 1106 l 504 1256 m 424 1106 l 265 1106 l 265 1256 l 424 1256 l 424 1106 z "},"Å":{"ha":926,"x_min":-10,"x_max":938,"o":"m 460 821 l 310 394 l 613 394 l 464 821 l 460 821 m -10 0 l 371 992 l 556 992 l 938 0 l 751 0 l 658 263 l 263 263 l 169 0 l -10 0 m 464 1036 q 364 1079 407 1036 q 321 1179 321 1122 q 364 1280 321 1238 q 464 1322 407 1322 q 565 1280 522 1322 q 607 1179 607 1238 q 565 1079 607 1122 q 464 1036 522 1036 m 379 1179 q 405 1120 379 1146 q 464 1094 431 1094 q 524 1120 499 1094 q 549 1179 549 1146 q 524 1239 549 1214 q 464 1264 499 1264 q 405 1239 431 1264 q 379 1179 379 1214 z "},"Æ":{"ha":1338,"x_min":-10,"x_max":1292,"o":"m 585 842 l 367 386 l 635 386 l 635 842 l 585 842 m -10 0 l 483 992 l 1283 992 l 1283 842 l 800 842 l 800 582 l 1253 582 l 1253 440 l 800 440 l 800 150 l 1292 150 l 1292 0 l 635 0 l 635 254 l 303 254 l 183 0 l -10 0 z "},"Ç":{"ha":1003,"x_min":53,"x_max":950,"o":"m 781 378 l 950 378 q 826 90 939 201 q 538 -22 713 -21 l 493 -81 l 493 -83 q 539 -79 504 -79 q 618 -104 585 -79 q 657 -182 657 -133 q 603 -281 657 -247 q 489 -307 558 -307 q 346 -278 396 -307 l 371 -222 q 461 -244 438 -244 q 546 -187 546 -244 q 526 -149 546 -162 q 482 -135 507 -135 q 428 -149 451 -135 l 397 -122 l 474 -21 q 164 149 281 -1 q 53 496 53 292 q 179 863 53 717 q 528 1015 311 1015 q 814 926 699 1015 q 949 676 933 833 l 775 676 q 528 874 725 874 q 297 756 379 874 q 226 496 226 653 q 297 236 226 339 q 528 118 379 118 q 707 194 639 118 q 781 378 769 264 z "},"È":{"ha":875,"x_min":106,"x_max":829,"o":"m 106 0 l 106 992 l 819 992 l 819 842 l 279 842 l 279 582 l 779 582 l 779 440 l 279 440 l 279 150 l 829 150 l 829 0 l 106 0 m 231 1289 l 417 1289 l 543 1090 l 428 1090 l 231 1289 z "},"É":{"ha":875,"x_min":106,"x_max":829,"o":"m 106 0 l 106 992 l 819 992 l 819 842 l 279 842 l 279 582 l 779 582 l 779 440 l 279 440 l 279 150 l 829 150 l 829 0 l 106 0 m 333 1090 l 458 1289 l 646 1289 l 449 1090 l 333 1090 z "},"Ê":{"ha":875,"x_min":106,"x_max":829,"o":"m 106 0 l 106 992 l 819 992 l 819 842 l 279 842 l 279 582 l 779 582 l 779 440 l 279 440 l 279 150 l 829 150 l 829 0 l 106 0 m 438 1215 l 340 1090 l 213 1090 l 361 1289 l 515 1289 l 665 1090 l 536 1090 l 438 1215 z "},"Ë":{"ha":875,"x_min":106,"x_max":829,"o":"m 106 0 l 106 992 l 819 992 l 819 842 l 279 842 l 279 582 l 779 582 l 779 440 l 279 440 l 279 150 l 829 150 l 829 0 l 106 0 m 479 1256 l 638 1256 l 638 1106 l 479 1106 l 479 1256 m 399 1106 l 240 1106 l 240 1256 l 399 1256 l 399 1106 z "},"Ì":{"ha":386,"x_min":-14,"x_max":299,"o":"m 106 0 l 106 992 l 279 992 l 279 0 l 106 0 m -14 1289 l 172 1289 l 299 1090 l 183 1090 l -14 1289 z "},"Í":{"ha":386,"x_min":89,"x_max":401,"o":"m 106 0 l 106 992 l 279 992 l 279 0 l 106 0 m 89 1083 l 214 1282 l 401 1282 l 204 1083 l 89 1083 z "},"Î":{"ha":386,"x_min":-32,"x_max":421,"o":"m 106 0 l 106 992 l 279 992 l 279 0 l 106 0 m 193 1215 l 96 1090 l -32 1090 l 117 1289 l 271 1289 l 421 1090 l 292 1090 l 193 1215 z "},"Ï":{"ha":386,"x_min":-4,"x_max":393,"o":"m 106 0 l 106 992 l 279 992 l 279 0 l 106 0 m 235 1256 l 393 1256 l 393 1106 l 235 1106 l 235 1256 m 154 1106 l -4 1106 l -4 1256 l 154 1256 l 154 1106 z "},"Ð":{"ha":1003,"x_min":13,"x_max":954,"o":"m 106 0 l 106 440 l 13 440 l 13 582 l 106 582 l 106 992 l 517 992 q 850 846 735 992 q 954 496 954 715 q 850 146 954 276 q 517 0 735 0 l 106 0 m 279 850 l 279 582 l 550 582 l 550 440 l 279 440 l 279 142 l 450 142 q 718 244 639 142 q 781 496 781 328 q 718 747 781 664 q 450 850 639 850 l 279 850 z "},"Ñ":{"ha":1003,"x_min":99,"x_max":903,"o":"m 99 0 l 99 992 l 282 992 l 735 261 l 738 261 l 738 992 l 903 992 l 903 0 l 719 0 l 268 729 l 264 729 l 264 0 l 99 0 m 669 1265 l 669 1265 l 747 1265 q 593 1106 722 1106 q 492 1131 561 1106 q 394 1157 424 1157 q 353 1139 371 1157 q 336 1100 336 1121 l 257 1100 q 301 1206 267 1161 q 401 1257 343 1257 q 512 1231 447 1257 q 600 1204 576 1204 q 669 1265 653 1204 z "},"Ò":{"ha":1056,"x_min":53,"x_max":1003,"o":"m 528 1015 q 876 863 744 1015 q 1003 496 1003 715 q 876 131 1003 276 q 528 -24 744 -24 q 179 131 311 -24 q 53 496 53 276 q 179 863 53 715 q 528 1015 311 1015 m 528 874 q 297 756 379 874 q 226 496 226 653 q 297 236 226 339 q 528 118 379 118 q 758 236 676 118 q 829 496 829 339 q 758 756 829 653 q 528 874 676 874 m 321 1289 l 507 1289 l 633 1090 l 518 1090 l 321 1289 z "},"Ó":{"ha":1056,"x_min":53,"x_max":1003,"o":"m 528 1015 q 876 863 744 1015 q 1003 496 1003 715 q 876 131 1003 276 q 528 -24 744 -24 q 179 131 311 -24 q 53 496 53 276 q 179 863 53 715 q 528 1015 311 1015 m 528 874 q 297 756 379 874 q 226 496 226 653 q 297 236 226 339 q 528 118 379 118 q 758 236 676 118 q 829 496 829 339 q 758 756 829 653 q 528 874 676 874 m 424 1069 l 549 1268 l 736 1268 l 539 1069 l 424 1069 z "},"Ô":{"ha":1056,"x_min":53,"x_max":1003,"o":"m 528 1015 q 876 863 744 1015 q 1003 496 1003 715 q 876 131 1003 276 q 528 -24 744 -24 q 179 131 311 -24 q 53 496 53 276 q 179 863 53 715 q 528 1015 311 1015 m 528 874 q 297 756 379 874 q 226 496 226 653 q 297 236 226 339 q 528 118 379 118 q 758 236 676 118 q 829 496 829 339 q 758 756 829 653 q 528 874 676 874 m 528 1215 l 431 1090 l 303 1090 l 451 1289 l 606 1289 l 756 1090 l 626 1090 l 528 1215 z "},"Õ":{"ha":1056,"x_min":53,"x_max":1003,"o":"m 528 1015 q 876 863 744 1015 q 1003 496 1003 715 q 876 131 1003 276 q 528 -24 744 -24 q 179 131 311 -24 q 53 496 53 276 q 179 863 53 715 q 528 1015 311 1015 m 528 874 q 297 756 379 874 q 226 496 226 653 q 297 236 226 339 q 528 118 379 118 q 758 236 676 118 q 829 496 829 339 q 758 756 829 653 q 528 874 676 874 m 696 1265 l 696 1265 l 774 1265 q 619 1106 749 1106 q 519 1131 588 1106 q 421 1157 450 1157 q 380 1139 397 1157 q 363 1100 363 1121 l 283 1100 q 328 1206 293 1161 q 428 1257 369 1257 q 538 1231 474 1257 q 626 1204 603 1204 q 696 1265 679 1204 z "},"Ö":{"ha":1056,"x_min":53,"x_max":1003,"o":"m 528 1015 q 876 863 744 1015 q 1003 496 1003 715 q 876 131 1003 276 q 528 -24 744 -24 q 179 131 311 -24 q 53 496 53 276 q 179 863 53 715 q 528 1015 311 1015 m 528 874 q 297 756 379 874 q 226 496 226 653 q 297 236 226 339 q 528 118 379 118 q 758 236 676 118 q 829 496 829 339 q 758 756 829 653 q 528 874 676 874 m 569 1256 l 728 1256 l 728 1106 l 569 1106 l 569 1256 m 489 1106 l 331 1106 l 331 1256 l 489 1256 l 489 1106 z "},"×":{"ha":833,"x_min":76,"x_max":757,"o":"m 318 351 l 76 593 l 196 671 l 415 450 l 638 671 l 757 593 l 514 351 l 757 110 l 638 32 l 415 254 l 196 32 l 76 110 l 318 351 z "},"Ø":{"ha":1056,"x_min":53,"x_max":1003,"o":"m 276 272 l 733 786 q 528 874 657 874 q 297 756 379 874 q 226 496 226 653 q 276 272 226 364 m 778 719 l 322 206 q 528 118 403 118 q 758 236 676 118 q 829 496 829 339 q 778 719 829 626 m 940 1019 l 1000 969 l 890 846 q 1003 496 1003 701 q 876 131 1003 276 q 528 -24 744 -24 q 219 90 342 -24 l 114 -28 l 56 22 l 165 147 q 53 496 53 290 q 179 863 53 715 q 528 1015 311 1015 q 836 903 713 1015 l 940 1019 z "},"Ù":{"ha":1003,"x_min":94,"x_max":908,"o":"m 94 357 l 94 992 l 268 992 l 268 414 q 300 221 268 279 q 501 126 351 126 q 703 221 651 126 q 735 414 735 279 l 735 992 l 908 992 l 908 357 q 797 71 908 171 q 501 -24 690 -24 q 207 71 313 -24 q 94 357 94 171 m 294 1289 l 481 1289 l 607 1090 l 492 1090 l 294 1289 z "},"Ú":{"ha":1003,"x_min":94,"x_max":908,"o":"m 94 357 l 94 992 l 268 992 l 268 414 q 300 221 268 279 q 501 126 351 126 q 703 221 651 126 q 735 414 735 279 l 735 992 l 908 992 l 908 357 q 797 71 908 171 q 501 -24 690 -24 q 207 71 313 -24 q 94 357 94 171 m 397 1069 l 522 1268 l 710 1268 l 513 1069 l 397 1069 z "},"Û":{"ha":1003,"x_min":94,"x_max":908,"o":"m 94 357 l 94 992 l 268 992 l 268 414 q 300 221 268 279 q 501 126 351 126 q 703 221 651 126 q 735 414 735 279 l 735 992 l 908 992 l 908 357 q 797 71 908 171 q 501 -24 690 -24 q 207 71 313 -24 q 94 357 94 171 m 501 1215 l 404 1090 l 276 1090 l 425 1289 l 579 1289 l 729 1090 l 600 1090 l 501 1215 z "},"Ü":{"ha":1003,"x_min":94,"x_max":908,"o":"m 94 357 l 94 992 l 268 992 l 268 414 q 300 221 268 279 q 501 126 351 126 q 703 221 651 126 q 735 414 735 279 l 735 992 l 908 992 l 908 357 q 797 71 908 171 q 501 -24 690 -24 q 207 71 313 -24 q 94 357 94 171 m 543 1256 l 701 1256 l 701 1106 l 543 1106 l 543 1256 m 463 1106 l 304 1106 l 304 1256 l 463 1256 l 463 1106 z "},"Ý":{"ha":900,"x_min":-8,"x_max":908,"o":"m 364 0 l 364 389 l -8 992 l 193 992 l 456 547 l 714 992 l 908 992 l 538 389 l 538 0 l 364 0 m 346 1069 l 471 1268 l 658 1268 l 461 1069 l 346 1069 z "},"Þ":{"ha":926,"x_min":106,"x_max":881,"o":"m 106 0 l 106 992 l 279 992 l 279 842 l 543 842 q 818 735 732 842 q 881 535 881 657 q 818 338 881 414 q 543 231 732 231 l 279 231 l 279 0 l 106 0 m 279 700 l 279 372 l 533 372 q 650 407 603 372 q 707 536 707 450 q 536 700 707 700 l 279 700 z "},"ß":{"ha":797,"x_min":88,"x_max":732,"o":"m 88 0 l 88 726 q 172 938 88 860 q 392 1015 257 1015 q 596 950 511 1015 q 688 765 688 879 q 653 636 688 692 q 546 556 615 576 l 546 553 q 683 471 631 543 q 732 315 732 404 q 645 75 732 169 q 414 -19 558 -19 q 336 -15 376 -19 l 336 110 q 390 106 357 106 q 574 322 574 106 q 497 458 574 411 q 338 493 442 493 l 338 597 q 475 633 431 597 q 529 750 529 676 q 389 890 529 890 q 246 710 246 890 l 246 0 l 88 0 z "},"à":{"ha":772,"x_min":44,"x_max":761,"o":"m 526 242 l 526 360 q 438 331 496 340 q 332 317 385 324 q 203 197 203 294 q 256 125 203 150 q 349 106 296 106 q 464 136 413 106 q 526 242 526 174 m 685 529 l 685 160 q 722 106 685 106 q 761 108 744 106 l 761 -1 q 661 -19 710 -19 q 539 68 556 -19 q 290 -19 450 -19 q 119 33 186 -19 q 44 190 44 90 q 133 363 44 310 q 321 414 188 394 q 471 436 471 436 q 536 515 536 456 q 388 613 536 613 q 229 499 239 613 l 71 499 q 397 738 85 738 q 593 690 515 738 q 685 529 685 635 m 179 1015 l 365 1015 l 492 817 l 376 817 l 179 1015 z "},"á":{"ha":772,"x_min":44,"x_max":761,"o":"m 526 242 l 526 360 q 438 331 496 340 q 332 317 385 324 q 203 197 203 294 q 256 125 203 150 q 349 106 296 106 q 464 136 413 106 q 526 242 526 174 m 685 529 l 685 160 q 722 106 685 106 q 761 108 744 106 l 761 -1 q 661 -19 710 -19 q 539 68 556 -19 q 290 -19 450 -19 q 119 33 186 -19 q 44 190 44 90 q 133 363 44 310 q 321 414 188 394 q 471 436 471 436 q 536 515 536 456 q 388 613 536 613 q 229 499 239 613 l 71 499 q 397 738 85 738 q 593 690 515 738 q 685 529 685 635 m 282 817 l 407 1015 l 594 1015 l 397 817 l 282 817 z "},"â":{"ha":772,"x_min":44,"x_max":761,"o":"m 526 242 l 526 360 q 438 331 496 340 q 332 317 385 324 q 203 197 203 294 q 256 125 203 150 q 349 106 296 106 q 464 136 413 106 q 526 242 526 174 m 685 529 l 685 160 q 722 106 685 106 q 761 108 744 106 l 761 -1 q 661 -19 710 -19 q 539 68 556 -19 q 290 -19 450 -19 q 119 33 186 -19 q 44 190 44 90 q 133 363 44 310 q 321 414 188 394 q 471 436 471 436 q 536 515 536 456 q 388 613 536 613 q 229 499 239 613 l 71 499 q 397 738 85 738 q 593 690 515 738 q 685 529 685 635 m 386 942 l 289 817 l 161 817 l 310 1015 l 464 1015 l 614 817 l 485 817 l 386 942 z "},"ã":{"ha":772,"x_min":44,"x_max":761,"o":"m 526 242 l 526 360 q 438 331 496 340 q 332 317 385 324 q 203 197 203 294 q 256 125 203 150 q 349 106 296 106 q 464 136 413 106 q 526 242 526 174 m 685 529 l 685 160 q 722 106 685 106 q 761 108 744 106 l 761 -1 q 661 -19 710 -19 q 539 68 556 -19 q 290 -19 450 -19 q 119 33 186 -19 q 44 190 44 90 q 133 363 44 310 q 321 414 188 394 q 471 436 471 436 q 536 515 536 456 q 388 613 536 613 q 229 499 239 613 l 71 499 q 397 738 85 738 q 593 690 515 738 q 685 529 685 635 m 554 992 l 554 992 l 632 992 q 478 832 607 832 q 377 858 446 832 q 279 883 308 883 q 238 865 256 883 q 221 826 221 847 l 142 826 q 186 932 151 888 q 286 983 228 983 q 397 957 332 983 q 485 931 461 931 q 554 992 538 931 z "},"ä":{"ha":772,"x_min":44,"x_max":761,"o":"m 526 242 l 526 360 q 438 331 496 340 q 332 317 385 324 q 203 197 203 294 q 256 125 203 150 q 349 106 296 106 q 464 136 413 106 q 526 242 526 174 m 685 529 l 685 160 q 722 106 685 106 q 761 108 744 106 l 761 -1 q 661 -19 710 -19 q 539 68 556 -19 q 290 -19 450 -19 q 119 33 186 -19 q 44 190 44 90 q 133 363 44 310 q 321 414 188 394 q 471 436 471 436 q 536 515 536 456 q 388 613 536 613 q 229 499 239 613 l 71 499 q 397 738 85 738 q 593 690 515 738 q 685 529 685 635 m 428 982 l 586 982 l 586 832 l 428 832 l 428 982 m 347 832 l 189 832 l 189 982 l 347 982 l 347 832 z "},"å":{"ha":772,"x_min":44,"x_max":761,"o":"m 526 242 l 526 360 q 438 331 496 340 q 332 317 385 324 q 203 197 203 294 q 256 125 203 150 q 349 106 296 106 q 464 136 413 106 q 526 242 526 174 m 685 529 l 685 160 q 722 106 685 106 q 761 108 744 106 l 761 -1 q 661 -19 710 -19 q 539 68 556 -19 q 290 -19 450 -19 q 119 33 186 -19 q 44 190 44 90 q 133 363 44 310 q 321 414 188 394 q 471 436 471 436 q 536 515 536 456 q 388 613 536 613 q 229 499 239 613 l 71 499 q 397 738 85 738 q 593 690 515 738 q 685 529 685 635 m 388 763 q 288 806 331 763 q 244 906 244 849 q 288 1006 244 964 q 388 1049 331 1049 q 488 1006 446 1049 q 531 906 531 964 q 488 806 531 849 q 388 763 446 763 m 303 906 q 328 847 303 872 q 388 821 354 821 q 447 847 422 821 q 472 906 472 872 q 447 965 472 940 q 388 990 422 990 q 328 965 354 990 q 303 906 303 940 z "},"æ":{"ha":1235,"x_min":44,"x_max":1199,"o":"m 676 422 l 1039 422 q 992 560 1040 508 q 857 613 943 613 q 728 556 776 613 q 676 422 682 504 m 526 250 l 526 357 q 444 329 506 338 q 333 317 389 324 q 203 197 203 296 q 347 106 203 106 q 469 143 418 106 q 526 250 526 183 m 1033 226 l 1192 226 q 1074 47 1161 113 q 867 -19 986 -19 q 603 113 678 -19 q 304 -19 514 -19 q 121 33 192 -19 q 44 190 44 89 q 133 363 44 310 q 321 414 188 394 q 467 436 463 435 q 528 515 528 454 q 388 613 528 613 q 229 499 239 613 l 71 499 q 178 688 79 626 q 393 738 260 738 q 636 640 571 738 q 864 738 710 738 q 1117 632 1029 738 q 1199 363 1199 533 q 1197 318 1199 340 l 676 318 q 721 171 675 229 q 864 106 771 106 q 1033 226 990 106 z "},"ç":{"ha":772,"x_min":49,"x_max":726,"o":"m 568 269 l 726 269 q 426 -17 683 -4 l 378 -81 l 378 -83 q 424 -79 389 -79 q 503 -104 469 -79 q 542 -182 542 -133 q 488 -281 542 -247 q 374 -307 443 -307 q 231 -278 281 -307 l 256 -222 q 346 -244 322 -244 q 431 -187 431 -244 q 411 -149 431 -162 q 367 -135 392 -135 q 313 -149 336 -135 l 282 -122 l 361 -17 q 129 99 213 -6 q 49 351 49 197 q 138 626 49 522 q 403 738 232 738 q 621 674 535 738 q 726 478 715 604 l 568 478 q 404 613 549 613 q 275 564 325 613 q 207 351 207 497 q 250 183 207 250 q 397 106 301 106 q 512 149 467 106 q 568 269 557 193 z "},"è":{"ha":772,"x_min":49,"x_max":738,"o":"m 735 318 l 207 318 q 254 169 207 228 q 400 106 306 106 q 575 225 533 106 l 725 225 q 610 45 700 110 q 400 -19 521 -19 q 142 85 235 -19 q 49 358 49 189 q 142 625 49 517 q 396 738 240 738 q 644 626 547 738 q 738 371 738 522 q 735 318 738 344 m 207 422 l 576 422 q 523 557 572 501 q 396 613 474 613 q 263 558 315 613 q 207 422 210 504 m 179 1015 l 365 1015 l 492 817 l 376 817 l 179 1015 z "},"é":{"ha":772,"x_min":49,"x_max":738,"o":"m 735 318 l 207 318 q 254 169 207 228 q 400 106 306 106 q 575 225 533 106 l 725 225 q 610 45 700 110 q 400 -19 521 -19 q 142 85 235 -19 q 49 358 49 189 q 142 625 49 517 q 396 738 240 738 q 644 626 547 738 q 738 371 738 522 q 735 318 738 344 m 207 422 l 576 422 q 523 557 572 501 q 396 613 474 613 q 263 558 315 613 q 207 422 210 504 m 282 817 l 407 1015 l 594 1015 l 397 817 l 282 817 z "},"ê":{"ha":772,"x_min":49,"x_max":738,"o":"m 735 318 l 207 318 q 254 169 207 228 q 400 106 306 106 q 575 225 533 106 l 725 225 q 610 45 700 110 q 400 -19 521 -19 q 142 85 235 -19 q 49 358 49 189 q 142 625 49 517 q 396 738 240 738 q 644 626 547 738 q 738 371 738 522 q 735 318 738 344 m 207 422 l 576 422 q 523 557 572 501 q 396 613 474 613 q 263 558 315 613 q 207 422 210 504 m 386 942 l 289 817 l 161 817 l 310 1015 l 464 1015 l 614 817 l 485 817 l 386 942 z "},"ë":{"ha":772,"x_min":49,"x_max":738,"o":"m 735 318 l 207 318 q 254 169 207 228 q 400 106 306 106 q 575 225 533 106 l 725 225 q 610 45 700 110 q 400 -19 521 -19 q 142 85 235 -19 q 49 358 49 189 q 142 625 49 517 q 396 738 240 738 q 644 626 547 738 q 738 371 738 522 q 735 318 738 344 m 207 422 l 576 422 q 523 557 572 501 q 396 613 474 613 q 263 558 315 613 q 207 422 210 504 m 428 982 l 586 982 l 586 832 l 428 832 l 428 982 m 347 832 l 189 832 l 189 982 l 347 982 l 347 832 z "},"ì":{"ha":335,"x_min":-40,"x_max":272,"o":"m 246 0 l 88 0 l 88 718 l 246 718 l 246 0 m -40 1015 l 146 1015 l 272 817 l 157 817 l -40 1015 z "},"í":{"ha":335,"x_min":63,"x_max":375,"o":"m 246 0 l 88 0 l 88 718 l 246 718 l 246 0 m 63 817 l 188 1015 l 375 1015 l 178 817 l 63 817 z "},"î":{"ha":335,"x_min":-58,"x_max":394,"o":"m 246 0 l 88 0 l 88 718 l 246 718 l 246 0 m 167 942 l 69 817 l -58 817 l 90 1015 l 244 1015 l 394 817 l 265 817 l 167 942 z "},"ï":{"ha":335,"x_min":-31,"x_max":367,"o":"m 246 0 l 88 0 l 88 718 l 246 718 l 246 0 m 208 982 l 367 982 l 367 832 l 208 832 l 208 982 m 128 832 l -31 832 l -31 982 l 128 982 l 128 832 z "},"ð":{"ha":824,"x_min":58,"x_max":764,"o":"m 415 578 q 217 340 217 578 q 261 175 217 239 q 400 106 310 106 q 551 178 492 106 q 606 340 606 246 q 561 504 606 439 q 415 578 510 578 m 269 751 l 200 819 l 333 883 q 215 931 293 901 l 321 1015 q 465 946 397 990 l 611 1015 l 679 947 l 549 885 q 764 429 764 708 q 679 113 764 229 q 390 -19 582 -19 q 146 85 235 -19 q 58 350 58 185 q 142 594 58 493 q 368 703 229 703 q 567 642 481 703 l 569 642 q 419 824 529 731 l 269 751 z "},"ñ":{"ha":797,"x_min":83,"x_max":714,"o":"m 83 0 l 83 718 l 233 718 l 233 613 l 236 610 q 460 738 313 738 q 647 675 579 738 q 714 493 714 613 l 714 0 l 556 0 l 556 451 q 415 613 556 613 q 290 558 338 613 q 242 424 242 504 l 242 0 l 83 0 m 567 992 l 567 992 l 644 992 q 490 832 619 832 q 390 858 458 832 q 292 883 321 883 q 251 865 268 883 q 233 826 233 847 l 154 826 q 199 932 164 888 q 299 983 240 983 q 409 957 344 983 q 497 931 474 931 q 567 992 550 931 z "},"ò":{"ha":824,"x_min":50,"x_max":775,"o":"m 413 106 q 568 186 513 106 q 617 360 617 256 q 568 532 617 463 q 413 613 513 613 q 257 532 313 613 q 208 360 208 463 q 257 186 208 256 q 413 106 313 106 m 413 -19 q 144 88 243 -19 q 50 360 50 190 q 147 633 50 528 q 413 738 243 738 q 681 631 582 738 q 775 360 775 528 q 681 88 775 190 q 413 -19 582 -19 m 204 1015 l 390 1015 l 517 817 l 401 817 l 204 1015 z "},"ó":{"ha":824,"x_min":50,"x_max":775,"o":"m 413 106 q 568 186 513 106 q 617 360 617 256 q 568 532 617 463 q 413 613 513 613 q 257 532 313 613 q 208 360 208 463 q 257 186 208 256 q 413 106 313 106 m 413 -19 q 144 88 243 -19 q 50 360 50 190 q 147 633 50 528 q 413 738 243 738 q 681 631 582 738 q 775 360 775 528 q 681 88 775 190 q 413 -19 582 -19 m 307 817 l 432 1015 l 619 1015 l 422 817 l 307 817 z "},"ô":{"ha":824,"x_min":50,"x_max":775,"o":"m 413 106 q 568 186 513 106 q 617 360 617 256 q 568 532 617 463 q 413 613 513 613 q 257 532 313 613 q 208 360 208 463 q 257 186 208 256 q 413 106 313 106 m 413 -19 q 144 88 243 -19 q 50 360 50 190 q 147 633 50 528 q 413 738 243 738 q 681 631 582 738 q 775 360 775 528 q 681 88 775 190 q 413 -19 582 -19 m 411 942 l 314 817 l 186 817 l 335 1015 l 489 1015 l 639 817 l 510 817 l 411 942 z "},"õ":{"ha":824,"x_min":50,"x_max":775,"o":"m 413 106 q 568 186 513 106 q 617 360 617 256 q 568 532 617 463 q 413 613 513 613 q 257 532 313 613 q 208 360 208 463 q 257 186 208 256 q 413 106 313 106 m 413 -19 q 144 88 243 -19 q 50 360 50 190 q 147 633 50 528 q 413 738 243 738 q 681 631 582 738 q 775 360 775 528 q 681 88 775 190 q 413 -19 582 -19 m 579 992 l 579 992 l 657 992 q 503 832 632 832 q 402 858 471 832 q 304 883 333 883 q 263 865 281 883 q 246 826 246 847 l 167 826 q 211 932 176 888 q 311 983 253 983 q 422 957 357 983 q 510 931 486 931 q 579 992 563 931 z "},"ö":{"ha":824,"x_min":50,"x_max":775,"o":"m 413 106 q 568 186 513 106 q 617 360 617 256 q 568 532 617 463 q 413 613 513 613 q 257 532 313 613 q 208 360 208 463 q 257 186 208 256 q 413 106 313 106 m 413 -19 q 144 88 243 -19 q 50 360 50 190 q 147 633 50 528 q 413 738 243 738 q 681 631 582 738 q 775 360 775 528 q 681 88 775 190 q 413 -19 582 -19 m 453 982 l 611 982 l 611 832 l 453 832 l 453 982 m 372 832 l 214 832 l 214 982 l 372 982 l 372 832 z "},"÷":{"ha":833,"x_min":67,"x_max":767,"o":"m 767 281 l 67 281 l 67 422 l 767 422 l 767 281 m 418 538 q 347 567 378 538 q 317 638 317 597 q 347 708 317 679 q 417 738 376 738 q 487 708 457 738 q 517 638 517 678 q 487 569 517 600 q 418 538 457 538 m 418 -35 q 347 -5 378 -35 q 317 65 317 25 q 347 136 317 107 q 417 165 376 165 q 487 135 457 165 q 517 65 517 106 q 487 -3 517 28 q 418 -35 457 -35 z "},"ø":{"ha":824,"x_min":44,"x_max":781,"o":"m 585 503 l 275 164 q 413 106 329 106 q 568 186 513 106 q 617 360 617 256 q 585 503 617 440 m 89 -39 l 44 0 l 135 100 q 50 360 50 201 q 147 633 50 528 q 413 738 243 738 q 649 661 557 738 l 736 757 l 781 718 l 690 619 q 775 360 775 515 q 681 88 775 190 q 413 -19 582 -19 q 178 58 271 -19 l 89 -39 m 240 215 l 550 554 q 413 613 496 613 q 257 532 313 613 q 208 360 208 463 q 240 215 208 278 z "},"ù":{"ha":797,"x_min":83,"x_max":714,"o":"m 714 718 l 714 0 l 558 0 l 558 100 l 556 100 q 469 14 526 47 q 351 -19 411 -19 q 83 263 83 -19 l 83 718 l 242 718 l 242 278 q 379 106 242 106 q 556 301 556 106 l 556 718 l 714 718 m 192 1015 l 378 1015 l 504 817 l 389 817 l 192 1015 z "},"ú":{"ha":797,"x_min":83,"x_max":714,"o":"m 714 718 l 714 0 l 558 0 l 558 100 l 556 100 q 469 14 526 47 q 351 -19 411 -19 q 83 263 83 -19 l 83 718 l 242 718 l 242 278 q 379 106 242 106 q 556 301 556 106 l 556 718 l 714 718 m 294 817 l 419 1015 l 607 1015 l 410 817 l 294 817 z "},"û":{"ha":797,"x_min":83,"x_max":714,"o":"m 714 718 l 714 0 l 558 0 l 558 100 l 556 100 q 469 14 526 47 q 351 -19 411 -19 q 83 263 83 -19 l 83 718 l 242 718 l 242 278 q 379 106 242 106 q 556 301 556 106 l 556 718 l 714 718 m 399 942 l 301 817 l 174 817 l 322 1015 l 476 1015 l 626 817 l 497 817 l 399 942 z "},"ü":{"ha":797,"x_min":83,"x_max":714,"o":"m 714 718 l 714 0 l 558 0 l 558 100 l 556 100 q 469 14 526 47 q 351 -19 411 -19 q 83 263 83 -19 l 83 718 l 242 718 l 242 278 q 379 106 242 106 q 556 301 556 106 l 556 718 l 714 718 m 440 982 l 599 982 l 599 832 l 440 832 l 440 982 m 360 832 l 201 832 l 201 982 l 360 982 l 360 832 z "},"ý":{"ha":721,"x_min":4,"x_max":715,"o":"m 276 3 l 4 718 l 178 718 l 365 182 l 368 182 l 550 718 l 715 718 l 436 -39 q 353 -211 389 -167 q 182 -285 293 -285 q 72 -276 126 -285 l 72 -143 q 147 -153 131 -153 q 224 -125 197 -153 q 258 -53 242 -106 l 276 3 m 256 817 l 381 1015 l 568 1015 l 371 817 l 256 817 z "},"þ":{"ha":849,"x_min":88,"x_max":799,"o":"m 88 -265 l 88 992 l 246 992 l 246 625 l 249 625 q 340 707 281 676 q 463 738 400 738 q 715 625 625 738 q 799 356 799 522 q 724 96 799 199 q 489 -19 639 -19 q 249 93 318 -19 l 246 93 l 246 -265 l 88 -265 m 640 358 q 590 535 640 463 q 442 613 535 613 q 292 544 344 613 q 240 358 240 476 q 294 176 240 247 q 442 106 349 106 q 596 185 542 106 q 640 358 640 253 z "},"ÿ":{"ha":721,"x_min":4,"x_max":715,"o":"m 276 3 l 4 718 l 178 718 l 365 182 l 368 182 l 550 718 l 715 718 l 436 -39 q 353 -211 389 -167 q 182 -285 293 -285 q 72 -276 126 -285 l 72 -143 q 147 -153 131 -153 q 224 -125 197 -153 q 258 -53 242 -106 l 276 3 m 401 982 l 560 982 l 560 832 l 401 832 l 401 982 m 321 832 l 163 832 l 163 982 l 321 982 l 321 832 z "},"ı":{"ha":335,"x_min":88,"x_max":246,"o":"m 246 0 l 88 0 l 88 718 l 246 718 l 246 0 z "},"Ł":{"ha":797,"x_min":0,"x_max":783,"o":"m 106 440 l 106 992 l 279 992 l 279 567 l 557 764 l 557 635 l 279 438 l 279 150 l 783 150 l 783 0 l 106 0 l 106 315 l 0 240 l 0 365 l 106 440 z "},"ł":{"ha":335,"x_min":-7,"x_max":340,"o":"m 88 0 l 88 443 l -7 369 l -7 468 l 88 542 l 88 992 l 246 992 l 246 665 l 340 740 l 340 640 l 246 565 l 246 0 l 88 0 z "},"Œ":{"ha":1518,"x_min":57,"x_max":1461,"o":"m 767 304 l 767 674 q 708 813 767 757 q 529 874 643 874 q 301 753 382 874 q 231 494 231 649 q 301 238 231 340 q 529 118 382 118 q 704 181 635 118 q 767 304 767 236 m 932 842 l 932 582 l 1408 582 l 1408 440 l 932 440 l 932 150 l 1461 150 l 1461 0 l 774 0 l 774 89 q 513 -24 678 -24 q 175 131 300 -24 q 57 492 57 275 q 179 858 57 711 q 524 1015 308 1015 q 774 913 683 1015 l 774 992 l 1451 992 l 1451 842 l 932 842 z "},"œ":{"ha":1260,"x_min":49,"x_max":1226,"o":"m 1226 318 l 701 318 q 747 168 703 224 q 889 106 797 106 q 1000 138 951 106 q 1060 228 1049 169 l 1218 228 q 1103 44 1189 108 q 892 -19 1017 -19 q 635 113 703 -19 q 379 -19 567 -19 q 131 94 219 -19 q 49 361 49 197 q 138 626 49 522 q 392 738 232 738 q 643 617 575 738 q 894 738 719 738 q 1154 611 1069 738 q 1226 318 1226 504 m 882 613 q 754 557 804 613 q 701 422 704 501 l 1068 422 q 882 613 1057 613 m 390 613 q 249 532 297 613 q 207 364 207 464 q 390 106 207 106 q 574 364 574 106 q 532 532 574 464 q 390 613 483 613 z "},"Š":{"ha":900,"x_min":46,"x_max":854,"o":"m 46 331 l 219 331 q 293 167 219 222 q 471 118 358 118 q 633 165 578 118 q 681 268 681 206 q 599 390 681 360 q 303 472 588 394 q 83 724 83 532 q 197 944 83 864 q 446 1015 299 1015 q 714 935 608 1015 q 826 699 826 847 l 653 699 q 439 874 642 874 q 318 847 367 874 q 257 744 257 813 q 375 617 257 649 q 661 540 493 586 q 807 438 754 513 q 854 288 854 369 q 731 49 854 132 q 460 -24 624 -24 q 169 61 279 -24 q 46 331 49 154 m 678 1289 l 528 1090 l 374 1090 l 225 1289 l 353 1289 l 450 1165 l 549 1289 l 678 1289 z "},"š":{"ha":721,"x_min":44,"x_max":683,"o":"m 44 231 l 203 231 q 365 106 214 106 q 525 200 529 106 q 400 296 522 267 q 179 354 196 346 q 60 532 60 407 q 161 693 60 639 q 360 738 242 738 q 558 688 481 738 q 660 517 646 629 l 494 517 q 349 613 476 613 q 218 539 218 613 q 292 463 218 489 q 451 424 306 457 q 611 363 560 399 q 683 214 683 310 q 579 33 683 96 q 363 -19 492 -19 q 138 42 221 -19 q 44 231 46 108 m 588 1015 l 438 817 l 283 817 l 135 1015 l 263 1015 l 360 892 l 458 1015 l 588 1015 z "},"Ÿ":{"ha":900,"x_min":-8,"x_max":908,"o":"m 364 0 l 364 389 l -8 992 l 193 992 l 456 547 l 714 992 l 908 992 l 538 389 l 538 0 l 364 0 m 492 1256 l 650 1256 l 650 1106 l 492 1106 l 492 1256 m 411 1106 l 253 1106 l 253 1256 l 411 1256 l 411 1106 z "},"Ž":{"ha":875,"x_min":32,"x_max":844,"o":"m 76 842 l 76 992 l 831 992 l 831 860 l 253 150 l 844 150 l 844 0 l 32 0 l 32 142 l 610 842 l 76 842 m 665 1289 l 515 1090 l 361 1090 l 213 1289 l 340 1289 l 438 1165 l 536 1289 l 665 1289 z "},"ž":{"ha":694,"x_min":31,"x_max":663,"o":"m 58 593 l 58 718 l 642 718 l 642 607 l 231 125 l 663 125 l 663 0 l 31 0 l 31 111 l 428 593 l 58 593 m 575 1015 l 425 817 l 271 817 l 122 1015 l 250 1015 l 347 892 l 446 1015 l 575 1015 z "},"ƒ":{"ha":772,"x_min":0,"x_max":700,"o":"m 161 490 l 182 608 l 310 608 l 354 842 q 599 1015 388 1015 q 700 1008 644 1015 l 676 883 q 619 890 644 890 q 539 868 563 890 q 504 789 515 846 l 469 608 l 611 608 l 590 490 l 449 490 l 347 -39 q 265 -178 332 -121 q 110 -236 197 -236 q 0 -229 63 -236 l 21 -104 q 88 -111 58 -111 q 183 -33 168 -111 l 288 490 l 161 490 z "},"ˆ":{"ha":335,"x_min":-58,"x_max":394,"o":"m 167 942 l 69 817 l -58 817 l 90 1015 l 244 1015 l 394 817 l 265 817 l 167 942 z "},"ˇ":{"ha":335,"x_min":-58,"x_max":394,"o":"m 394 1015 l 244 817 l 90 817 l -58 1015 l 69 1015 l 167 892 l 265 1015 l 394 1015 z "},"¯":{"ha":335,"x_min":-32,"x_max":368,"o":"m 368 860 l -32 860 l -32 950 l 368 950 l 368 860 z "},"˘":{"ha":335,"x_min":-57,"x_max":392,"o":"m -57 1015 l 24 1015 q 172 910 44 910 q 313 1015 290 910 l 392 1015 q 321 869 382 919 q 161 819 260 819 q -57 1015 -40 819 z "},"˙":{"ha":335,"x_min":89,"x_max":247,"o":"m 247 832 l 89 832 l 89 982 l 247 982 l 247 832 z "},"˚":{"ha":335,"x_min":25,"x_max":311,"o":"m 168 763 q 68 806 111 763 q 25 906 25 849 q 68 1006 25 964 q 168 1049 111 1049 q 269 1006 226 1049 q 311 906 311 964 q 269 806 311 849 q 168 763 226 763 m 83 906 q 109 847 83 872 q 168 821 135 821 q 228 847 203 821 q 253 906 253 872 q 228 965 253 940 q 168 990 203 990 q 109 965 135 990 q 83 906 83 940 z "},"˛":{"ha":335,"x_min":67,"x_max":353,"o":"m 225 4 l 300 4 q 169 -172 169 -97 q 185 -217 169 -200 q 224 -233 201 -233 q 297 -187 264 -233 l 353 -199 q 207 -303 324 -303 q 126 -285 163 -303 q 67 -178 67 -253 q 225 4 67 -90 z "},"˜":{"ha":335,"x_min":-78,"x_max":413,"o":"m 335 992 l 335 992 l 413 992 q 258 832 388 832 q 158 858 226 832 q 60 883 89 883 q 19 865 36 883 q 1 826 1 847 l -78 826 q -33 932 -68 888 q 67 983 8 983 q 177 957 113 983 q 265 931 242 931 q 335 992 318 931 z "},"˝":{"ha":335,"x_min":-49,"x_max":542,"o":"m -49 817 l 76 1015 l 265 1015 l 65 817 l -49 817 m 228 817 l 353 1015 l 542 1015 l 342 817 l 228 817 z "},"µ":{"ha":797,"x_min":83,"x_max":714,"o":"m 714 718 l 714 0 l 558 0 l 558 100 l 556 100 q 472 14 528 47 q 367 -19 417 -19 q 242 31 285 -19 l 242 -265 l 83 -265 l 83 718 l 242 718 l 242 278 q 379 106 242 106 q 556 301 556 106 l 556 718 l 714 718 z "},"–":{"ha":694,"x_min":0,"x_max":694,"o":"m 0 303 l 0 453 l 694 453 l 694 303 l 0 303 z "},"—":{"ha":1389,"x_min":0,"x_max":1389,"o":"m 0 303 l 0 453 l 1389 453 l 1389 303 l 0 303 z "},"‘":{"ha":386,"x_min":107,"x_max":281,"o":"m 281 992 l 281 992 l 281 911 q 196 788 196 882 l 281 788 l 281 600 l 107 600 l 107 788 q 158 919 107 863 q 281 992 204 969 z "},"’":{"ha":386,"x_min":107,"x_max":281,"o":"m 107 600 l 107 600 l 107 681 q 192 804 192 692 l 107 804 l 107 992 l 281 992 l 281 804 q 233 667 281 724 q 107 600 186 610 z "},"‚":{"ha":386,"x_min":107,"x_max":281,"o":"m 107 -204 l 107 -204 l 107 -124 q 192 0 192 -94 l 107 0 l 107 188 l 281 188 l 281 0 q 229 -132 281 -75 q 107 -204 183 -182 z "},"“":{"ha":617,"x_min":83,"x_max":533,"o":"m 257 992 l 257 992 l 257 911 q 172 788 172 882 l 257 788 l 257 600 l 83 600 l 83 788 q 135 919 83 863 q 257 992 181 969 m 533 992 l 533 992 l 533 911 q 449 788 449 882 l 533 788 l 533 600 l 360 600 l 360 788 q 411 919 360 863 q 533 992 457 969 z "},"”":{"ha":617,"x_min":83,"x_max":533,"o":"m 83 600 l 83 600 l 83 681 q 168 804 168 710 l 83 804 l 83 992 l 257 992 l 257 804 q 206 674 257 729 q 83 600 160 622 m 360 600 l 360 600 l 360 681 q 444 804 444 710 l 360 804 l 360 992 l 533 992 l 533 804 q 482 674 533 729 q 360 600 436 622 z "},"„":{"ha":617,"x_min":83,"x_max":533,"o":"m 83 -204 l 83 -204 l 83 -124 q 168 0 168 -94 l 83 0 l 83 188 l 257 188 l 257 0 q 206 -132 257 -75 q 83 -204 160 -182 m 360 -204 l 360 -204 l 360 -124 q 444 0 444 -94 l 360 0 l 360 188 l 533 188 l 533 0 q 482 -132 533 -75 q 360 -204 436 -182 z "},"†":{"ha":772,"x_min":42,"x_max":731,"o":"m 307 -222 l 307 586 l 42 586 l 42 718 l 307 718 l 307 992 l 465 992 l 465 718 l 731 718 l 731 586 l 465 586 l 465 -222 l 307 -222 z "},"‡":{"ha":772,"x_min":42,"x_max":731,"o":"m 307 -222 l 307 51 l 42 51 l 42 183 l 307 183 l 307 586 l 42 586 l 42 718 l 307 718 l 307 992 l 465 992 l 465 718 l 731 718 l 731 586 l 465 586 l 465 183 l 731 183 l 731 51 l 465 51 l 465 -222 l 307 -222 z "},"•":{"ha":694,"x_min":100,"x_max":596,"o":"m 100 496 q 172 671 100 599 q 347 743 244 743 q 523 671 450 743 q 596 496 596 599 q 523 320 596 393 q 347 247 450 247 q 172 320 244 247 q 100 496 100 393 z "},"…":{"ha":1389,"x_min":135,"x_max":1253,"o":"m 135 0 l 135 188 l 328 188 l 328 0 l 135 0 m 597 0 l 597 188 l 790 188 l 790 0 l 597 0 m 1060 0 l 1060 188 l 1253 188 l 1253 0 l 1060 0 z "},"‰":{"ha":1594,"x_min":114,"x_max":1481,"o":"m 321 992 q 479 918 424 992 q 528 743 528 851 q 483 589 528 650 q 321 515 428 515 q 160 589 214 515 q 114 743 114 650 q 164 918 114 851 q 321 992 218 992 m 321 908 q 232 739 232 908 q 321 599 232 599 q 410 739 410 599 q 321 908 410 908 m 229 -33 l 782 1006 l 883 1006 l 328 -33 l 229 -33 m 800 -19 q 644 49 701 -19 q 593 214 593 113 q 643 385 593 319 q 800 457 697 457 q 958 385 903 457 q 1007 214 1007 319 q 956 49 1007 113 q 800 -19 899 -19 m 800 64 q 889 210 889 64 q 800 374 889 374 q 711 210 711 374 q 800 64 711 64 m 1274 -19 q 1113 57 1167 -19 q 1067 214 1067 119 q 1117 386 1067 321 q 1274 457 1171 457 q 1432 386 1376 457 q 1481 214 1481 321 q 1436 57 1481 119 q 1274 -19 1381 -19 m 1274 64 q 1363 210 1363 64 q 1274 374 1363 374 q 1185 210 1185 374 q 1274 64 1185 64 z "},"‹":{"ha":360,"x_min":69,"x_max":285,"o":"m 285 129 l 69 300 l 69 456 l 285 626 l 285 483 l 153 378 l 285 272 l 285 129 z "},"›":{"ha":360,"x_min":75,"x_max":290,"o":"m 75 626 l 290 456 l 290 300 l 75 129 l 75 272 l 207 378 l 75 483 l 75 626 z "},"⁄":{"ha":232,"x_min":-229,"x_max":461,"o":"m -229 -33 l 353 1006 l 461 1006 l -119 -33 l -229 -33 z "},"™":{"ha":1375,"x_min":82,"x_max":1293,"o":"m 543 992 l 543 901 l 368 901 l 368 419 l 257 419 l 257 901 l 82 901 l 82 992 l 543 992 m 821 992 l 978 586 l 1133 992 l 1293 992 l 1293 419 l 1189 419 l 1189 867 l 1186 867 l 1015 419 l 938 419 l 767 867 l 764 867 l 764 419 l 660 419 l 660 992 l 821 992 z "},"­":{"ha":833,"x_min":67,"x_max":767,"o":"m 767 281 l 67 281 l 67 422 l 767 422 l 767 281 z "},"·":{"ha":386,"x_min":89,"x_max":297,"o":"m 89 419 q 121 491 89 460 q 193 522 153 522 q 266 491 235 522 q 297 419 297 460 q 266 346 297 378 q 193 314 235 314 q 120 346 151 314 q 89 419 89 378 z "},"":{"ha":772,"x_min":13,"x_max":683,"o":"m 525 0 l 525 718 l 683 718 l 683 0 l 525 0 m 13 600 l 13 718 l 131 718 l 131 778 q 192 954 131 903 q 329 992 238 992 q 440 982 406 992 l 440 858 q 367 867 410 867 q 289 792 289 867 l 289 718 l 424 718 l 424 600 l 289 600 l 289 0 l 131 0 l 131 600 l 13 600 m 525 842 l 525 992 l 683 992 l 683 842 l 525 842 z "},"":{"ha":772,"x_min":13,"x_max":683,"o":"m 13 600 l 13 718 l 131 718 l 131 778 q 192 954 131 903 q 329 992 238 992 q 440 982 406 992 l 440 858 q 367 867 410 867 q 289 792 289 867 l 289 718 l 424 718 l 424 600 l 289 600 l 289 0 l 131 0 l 131 600 l 13 600 m 525 0 l 525 992 l 683 992 l 683 0 l 525 0 z "}}}
